<mxfile host="app.diagrams.net" modified="2023-06-25T23:25:50.758Z" agent="Mozilla/5.0 (Macintosh; Intel Mac OS X 10_15_7) AppleWebKit/537.36 (KHTML, like Gecko) Chrome/114.0.0.0 Safari/537.36" etag="lG0sr1bXQ_bV8KFdHkSI" version="21.3.2" type="device">
  <diagram name="Page-1" id="uKpbRSPOv3deb7B-QUyw">
    <mxGraphModel dx="3240" dy="2332" grid="1" gridSize="10" guides="1" tooltips="1" connect="1" arrows="1" fold="1" page="1" pageScale="1" pageWidth="850" pageHeight="1100" math="0" shadow="0">
      <root>
        <mxCell id="0" />
        <mxCell id="1" parent="0" />
        <mxCell id="a60Luz3aI9bvKfjTCTXW-31" style="edgeStyle=orthogonalEdgeStyle;rounded=0;orthogonalLoop=1;jettySize=auto;html=1;" edge="1" parent="1" source="a60Luz3aI9bvKfjTCTXW-30" target="a60Luz3aI9bvKfjTCTXW-12">
          <mxGeometry relative="1" as="geometry">
            <mxPoint x="-206" y="90" as="targetPoint" />
            <Array as="points">
              <mxPoint x="-206" y="-110" />
              <mxPoint x="224" y="-110" />
              <mxPoint x="224" y="-140" />
              <mxPoint x="465" y="-140" />
            </Array>
          </mxGeometry>
        </mxCell>
        <mxCell id="a60Luz3aI9bvKfjTCTXW-30" value="" style="rounded=0;whiteSpace=wrap;html=1;shadow=1;" vertex="1" parent="1">
          <mxGeometry x="-430" y="110" width="448" height="520" as="geometry" />
        </mxCell>
        <mxCell id="a60Luz3aI9bvKfjTCTXW-7" value="VPC" style="sketch=0;outlineConnect=0;gradientColor=none;html=1;whiteSpace=wrap;fontSize=12;fontStyle=0;shape=mxgraph.aws4.group;grIcon=mxgraph.aws4.group_vpc;strokeColor=#879196;fillColor=none;verticalAlign=top;align=left;spacingLeft=30;fontColor=#879196;dashed=0;" vertex="1" parent="1">
          <mxGeometry x="80" y="110" width="770" height="780" as="geometry" />
        </mxCell>
        <mxCell id="a60Luz3aI9bvKfjTCTXW-9" value="Private subnet" style="points=[[0,0],[0.25,0],[0.5,0],[0.75,0],[1,0],[1,0.25],[1,0.5],[1,0.75],[1,1],[0.75,1],[0.5,1],[0.25,1],[0,1],[0,0.75],[0,0.5],[0,0.25]];outlineConnect=0;gradientColor=none;html=1;whiteSpace=wrap;fontSize=12;fontStyle=0;container=1;pointerEvents=0;collapsible=0;recursiveResize=0;shape=mxgraph.aws4.group;grIcon=mxgraph.aws4.group_security_group;grStroke=0;strokeColor=#147EBA;fillColor=#E6F2F8;verticalAlign=top;align=left;spacingLeft=30;fontColor=#147EBA;dashed=0;" vertex="1" parent="1">
          <mxGeometry x="150" y="470" width="610" height="130" as="geometry" />
        </mxCell>
        <mxCell id="a60Luz3aI9bvKfjTCTXW-13" value="" style="sketch=0;points=[[0,0,0],[0.25,0,0],[0.5,0,0],[0.75,0,0],[1,0,0],[0,1,0],[0.25,1,0],[0.5,1,0],[0.75,1,0],[1,1,0],[0,0.25,0],[0,0.5,0],[0,0.75,0],[1,0.25,0],[1,0.5,0],[1,0.75,0]];outlineConnect=0;fontColor=#232F3E;gradientColor=#945DF2;gradientDirection=north;fillColor=#5A30B5;strokeColor=#ffffff;dashed=0;verticalLabelPosition=bottom;verticalAlign=top;align=center;html=1;fontSize=12;fontStyle=0;aspect=fixed;shape=mxgraph.aws4.resourceIcon;resIcon=mxgraph.aws4.kinesis_data_firehose;" vertex="1" parent="a60Luz3aI9bvKfjTCTXW-9">
          <mxGeometry x="150" y="26" width="78" height="78" as="geometry" />
        </mxCell>
        <mxCell id="a60Luz3aI9bvKfjTCTXW-15" value="" style="outlineConnect=0;dashed=0;verticalLabelPosition=bottom;verticalAlign=top;align=center;html=1;shape=mxgraph.aws3.ec2;fillColor=#F58534;gradientColor=none;" vertex="1" parent="a60Luz3aI9bvKfjTCTXW-9">
          <mxGeometry x="470" y="26" width="76.5" height="93" as="geometry" />
        </mxCell>
        <mxCell id="a60Luz3aI9bvKfjTCTXW-17" value="" style="outlineConnect=0;dashed=0;verticalLabelPosition=bottom;verticalAlign=top;align=center;html=1;shape=mxgraph.aws3.lambda;fillColor=#F58534;gradientColor=none;" vertex="1" parent="a60Luz3aI9bvKfjTCTXW-9">
          <mxGeometry x="310" y="18.5" width="76.5" height="93" as="geometry" />
        </mxCell>
        <mxCell id="a60Luz3aI9bvKfjTCTXW-10" value="Private subnet" style="points=[[0,0],[0.25,0],[0.5,0],[0.75,0],[1,0],[1,0.25],[1,0.5],[1,0.75],[1,1],[0.75,1],[0.5,1],[0.25,1],[0,1],[0,0.75],[0,0.5],[0,0.25]];outlineConnect=0;gradientColor=none;html=1;whiteSpace=wrap;fontSize=12;fontStyle=0;container=1;pointerEvents=0;collapsible=0;recursiveResize=0;shape=mxgraph.aws4.group;grIcon=mxgraph.aws4.group_security_group;grStroke=0;strokeColor=#147EBA;fillColor=#E6F2F8;verticalAlign=top;align=left;spacingLeft=30;fontColor=#147EBA;dashed=0;" vertex="1" parent="1">
          <mxGeometry x="150" y="670" width="620" height="130" as="geometry" />
        </mxCell>
        <mxCell id="a60Luz3aI9bvKfjTCTXW-14" value="" style="outlineConnect=0;dashed=0;verticalLabelPosition=bottom;verticalAlign=top;align=center;html=1;shape=mxgraph.aws3.dynamo_db;fillColor=#2E73B8;gradientColor=none;" vertex="1" parent="a60Luz3aI9bvKfjTCTXW-10">
          <mxGeometry x="269" y="40" width="72" height="81" as="geometry" />
        </mxCell>
        <mxCell id="a60Luz3aI9bvKfjTCTXW-11" value="Public subnet" style="points=[[0,0],[0.25,0],[0.5,0],[0.75,0],[1,0],[1,0.25],[1,0.5],[1,0.75],[1,1],[0.75,1],[0.5,1],[0.25,1],[0,1],[0,0.75],[0,0.5],[0,0.25]];outlineConnect=0;gradientColor=none;html=1;whiteSpace=wrap;fontSize=12;fontStyle=0;container=1;pointerEvents=0;collapsible=0;recursiveResize=0;shape=mxgraph.aws4.group;grIcon=mxgraph.aws4.group_security_group;grStroke=0;strokeColor=#248814;fillColor=#E9F3E6;verticalAlign=top;align=left;spacingLeft=30;fontColor=#248814;dashed=0;" vertex="1" parent="1">
          <mxGeometry x="150" y="270" width="610" height="130" as="geometry" />
        </mxCell>
        <mxCell id="a60Luz3aI9bvKfjTCTXW-19" value="Amazon IoT Core" style="sketch=0;outlineConnect=0;fontColor=#232F3E;gradientColor=none;strokeColor=#ffffff;fillColor=#232F3E;dashed=0;verticalLabelPosition=middle;verticalAlign=bottom;align=center;html=1;whiteSpace=wrap;fontSize=10;fontStyle=1;spacing=3;shape=mxgraph.aws4.productIcon;prIcon=mxgraph.aws4.iot_core;" vertex="1" parent="a60Luz3aI9bvKfjTCTXW-11">
          <mxGeometry x="280" y="10" width="80" height="110" as="geometry" />
        </mxCell>
        <mxCell id="a60Luz3aI9bvKfjTCTXW-33" style="edgeStyle=orthogonalEdgeStyle;rounded=0;orthogonalLoop=1;jettySize=auto;html=1;" edge="1" parent="1" source="a60Luz3aI9bvKfjTCTXW-12" target="a60Luz3aI9bvKfjTCTXW-19">
          <mxGeometry relative="1" as="geometry" />
        </mxCell>
        <mxCell id="a60Luz3aI9bvKfjTCTXW-39" style="edgeStyle=orthogonalEdgeStyle;rounded=0;orthogonalLoop=1;jettySize=auto;html=1;entryX=0.5;entryY=0;entryDx=0;entryDy=0;" edge="1" parent="1" source="a60Luz3aI9bvKfjTCTXW-12" target="a60Luz3aI9bvKfjTCTXW-30">
          <mxGeometry relative="1" as="geometry">
            <Array as="points">
              <mxPoint x="465" y="-140" />
              <mxPoint x="224" y="-140" />
              <mxPoint x="224" y="-110" />
              <mxPoint x="-206" y="-110" />
            </Array>
          </mxGeometry>
        </mxCell>
        <mxCell id="a60Luz3aI9bvKfjTCTXW-12" value="" style="outlineConnect=0;dashed=0;verticalLabelPosition=bottom;verticalAlign=top;align=center;html=1;shape=mxgraph.aws3.internet_gateway;fillColor=#F58534;gradientColor=none;" vertex="1" parent="1">
          <mxGeometry x="430.5" y="80" width="69" height="72" as="geometry" />
        </mxCell>
        <mxCell id="a60Luz3aI9bvKfjTCTXW-21" value="" style="sketch=0;outlineConnect=0;fontColor=#232F3E;gradientColor=none;fillColor=#3F8624;strokeColor=none;dashed=0;verticalLabelPosition=bottom;verticalAlign=top;align=center;html=1;fontSize=12;fontStyle=0;aspect=fixed;pointerEvents=1;shape=mxgraph.aws4.sensor;" vertex="1" parent="1">
          <mxGeometry x="-250" y="510" width="72" height="78" as="geometry" />
        </mxCell>
        <mxCell id="a60Luz3aI9bvKfjTCTXW-22" value="" style="sketch=0;outlineConnect=0;fontColor=#232F3E;gradientColor=none;fillColor=#3F8624;strokeColor=none;dashed=0;verticalLabelPosition=bottom;verticalAlign=top;align=center;html=1;fontSize=12;fontStyle=0;aspect=fixed;pointerEvents=1;shape=mxgraph.aws4.sensor;" vertex="1" parent="1">
          <mxGeometry x="-120" y="180" width="72" height="78" as="geometry" />
        </mxCell>
        <mxCell id="a60Luz3aI9bvKfjTCTXW-23" value="" style="sketch=0;outlineConnect=0;fontColor=#232F3E;gradientColor=none;fillColor=#3F8624;strokeColor=none;dashed=0;verticalLabelPosition=bottom;verticalAlign=top;align=center;html=1;fontSize=12;fontStyle=0;aspect=fixed;pointerEvents=1;shape=mxgraph.aws4.sensor;" vertex="1" parent="1">
          <mxGeometry x="-270" y="190" width="72" height="78" as="geometry" />
        </mxCell>
        <mxCell id="a60Luz3aI9bvKfjTCTXW-24" value="" style="sketch=0;outlineConnect=0;fontColor=#232F3E;gradientColor=none;fillColor=#3F8624;strokeColor=none;dashed=0;verticalLabelPosition=bottom;verticalAlign=top;align=center;html=1;fontSize=12;fontStyle=0;aspect=fixed;pointerEvents=1;shape=mxgraph.aws4.sensor;" vertex="1" parent="1">
          <mxGeometry x="-410" y="192" width="72" height="78" as="geometry" />
        </mxCell>
        <mxCell id="a60Luz3aI9bvKfjTCTXW-25" value="" style="sketch=0;outlineConnect=0;fontColor=#232F3E;gradientColor=none;fillColor=#3F8624;strokeColor=none;dashed=0;verticalLabelPosition=bottom;verticalAlign=top;align=center;html=1;fontSize=12;fontStyle=0;aspect=fixed;pointerEvents=1;shape=mxgraph.aws4.sensor;" vertex="1" parent="1">
          <mxGeometry x="-100" y="510" width="72" height="78" as="geometry" />
        </mxCell>
        <mxCell id="a60Luz3aI9bvKfjTCTXW-26" value="" style="sketch=0;outlineConnect=0;fontColor=#232F3E;gradientColor=none;fillColor=#3F8624;strokeColor=none;dashed=0;verticalLabelPosition=bottom;verticalAlign=top;align=center;html=1;fontSize=12;fontStyle=0;aspect=fixed;pointerEvents=1;shape=mxgraph.aws4.sensor;" vertex="1" parent="1">
          <mxGeometry x="-110" y="322" width="72" height="78" as="geometry" />
        </mxCell>
        <mxCell id="a60Luz3aI9bvKfjTCTXW-27" value="" style="sketch=0;outlineConnect=0;fontColor=#232F3E;gradientColor=none;fillColor=#3F8624;strokeColor=none;dashed=0;verticalLabelPosition=bottom;verticalAlign=top;align=center;html=1;fontSize=12;fontStyle=0;aspect=fixed;pointerEvents=1;shape=mxgraph.aws4.sensor;" vertex="1" parent="1">
          <mxGeometry x="-400" y="510" width="72" height="78" as="geometry" />
        </mxCell>
        <mxCell id="a60Luz3aI9bvKfjTCTXW-28" value="" style="sketch=0;outlineConnect=0;fontColor=#232F3E;gradientColor=none;fillColor=#3F8624;strokeColor=none;dashed=0;verticalLabelPosition=bottom;verticalAlign=top;align=center;html=1;fontSize=12;fontStyle=0;aspect=fixed;pointerEvents=1;shape=mxgraph.aws4.sensor;" vertex="1" parent="1">
          <mxGeometry x="-250" y="322" width="72" height="78" as="geometry" />
        </mxCell>
        <mxCell id="a60Luz3aI9bvKfjTCTXW-29" value="" style="sketch=0;outlineConnect=0;fontColor=#232F3E;gradientColor=none;fillColor=#3F8624;strokeColor=none;dashed=0;verticalLabelPosition=bottom;verticalAlign=top;align=center;html=1;fontSize=12;fontStyle=0;aspect=fixed;pointerEvents=1;shape=mxgraph.aws4.sensor;" vertex="1" parent="1">
          <mxGeometry x="-400" y="322" width="72" height="78" as="geometry" />
        </mxCell>
        <mxCell id="a60Luz3aI9bvKfjTCTXW-32" value="" style="outlineConnect=0;dashed=0;verticalLabelPosition=bottom;verticalAlign=top;align=center;html=1;shape=mxgraph.aws3.edge_location;fillColor=#F58536;gradientColor=none;" vertex="1" parent="1">
          <mxGeometry x="60" y="-140" width="58.5" height="64.5" as="geometry" />
        </mxCell>
        <mxCell id="a60Luz3aI9bvKfjTCTXW-34" style="edgeStyle=orthogonalEdgeStyle;rounded=0;orthogonalLoop=1;jettySize=auto;html=1;" edge="1" parent="1" source="a60Luz3aI9bvKfjTCTXW-19" target="a60Luz3aI9bvKfjTCTXW-17">
          <mxGeometry relative="1" as="geometry" />
        </mxCell>
        <mxCell id="a60Luz3aI9bvKfjTCTXW-35" style="edgeStyle=orthogonalEdgeStyle;rounded=0;orthogonalLoop=1;jettySize=auto;html=1;entryX=0.5;entryY=0;entryDx=0;entryDy=0;entryPerimeter=0;" edge="1" parent="1" source="a60Luz3aI9bvKfjTCTXW-17" target="a60Luz3aI9bvKfjTCTXW-14">
          <mxGeometry relative="1" as="geometry" />
        </mxCell>
        <mxCell id="a60Luz3aI9bvKfjTCTXW-36" style="edgeStyle=orthogonalEdgeStyle;rounded=0;orthogonalLoop=1;jettySize=auto;html=1;" edge="1" parent="1" source="a60Luz3aI9bvKfjTCTXW-14" target="a60Luz3aI9bvKfjTCTXW-17">
          <mxGeometry relative="1" as="geometry" />
        </mxCell>
        <mxCell id="a60Luz3aI9bvKfjTCTXW-37" style="edgeStyle=orthogonalEdgeStyle;rounded=0;orthogonalLoop=1;jettySize=auto;html=1;" edge="1" parent="1" source="a60Luz3aI9bvKfjTCTXW-17" target="a60Luz3aI9bvKfjTCTXW-19">
          <mxGeometry relative="1" as="geometry" />
        </mxCell>
        <mxCell id="a60Luz3aI9bvKfjTCTXW-38" style="edgeStyle=orthogonalEdgeStyle;rounded=0;orthogonalLoop=1;jettySize=auto;html=1;entryX=0.5;entryY=1;entryDx=0;entryDy=0;entryPerimeter=0;" edge="1" parent="1" source="a60Luz3aI9bvKfjTCTXW-19" target="a60Luz3aI9bvKfjTCTXW-12">
          <mxGeometry relative="1" as="geometry" />
        </mxCell>
      </root>
    </mxGraphModel>
  </diagram>
</mxfile>
